<svg width="1em" height="1em" viewBox="0 0 93 85" fill="none" xmlns="http://www.w3.org/2000/svg">
<path d="M63.2958 0.368408L41.8617 12.7434C40.0131 13.8107 38.4383 15.2938 37.2622 17.0751C36.086 18.8565 35.3408 20.8873 35.0854 23.0065C33.1224 22.168 30.9911 21.7981 28.8603 21.926C26.7295 22.0539 24.6578 22.6761 22.8091 23.7434L1.37501 36.1184C0.743377 36.4831 0.282481 37.0837 0.0937127 37.7882C-0.0950558 38.4927 0.00376606 39.2433 0.368439 39.875L25.1184 82.7432C25.4831 83.3749 26.0838 83.8358 26.7883 84.0245C27.4928 84.2133 28.2434 84.1145 28.875 83.7498L50.3091 71.3748C52.204 70.2808 54.4559 69.9843 56.5694 70.5506C58.6829 71.1169 60.4848 72.4996 61.5788 74.3945C61.9435 75.0261 62.5442 75.487 63.2487 75.6758C63.9532 75.8646 64.7038 75.7658 65.3354 75.4011C65.967 75.0364 66.4279 74.4358 66.6167 73.7313C66.8055 73.0268 66.7067 72.2761 66.342 71.6445C65.248 69.7496 64.9515 67.4977 65.5178 65.3843C66.0841 63.2708 67.4668 61.4688 69.3617 60.3748L90.7958 47.9998C91.4275 47.6351 91.8884 47.0345 92.0771 46.33C92.2659 45.6255 92.1671 44.8749 91.8024 44.2432L67.0524 1.37498C66.6877 0.743346 66.0871 0.282448 65.3826 0.0936795C64.6781 -0.0950894 63.9275 0.00373459 63.2958 0.368408ZM47.5591 66.6117L28.5066 77.6117L6.50658 39.5065L25.5591 28.5065C27.454 27.4125 29.7059 27.1161 31.8194 27.6824C33.9329 28.2487 35.7348 29.6314 36.8288 31.5263L56.0788 64.8682C53.1249 64.5076 50.1339 65.1196 47.5591 66.6117ZM85.6643 44.6117L66.6117 55.6117C64.0322 57.0955 62.0066 59.3797 60.842 62.1182L41.592 28.7763C40.498 26.8814 40.2015 24.6295 40.7678 22.516C41.3341 20.4025 42.7168 18.6006 44.6117 17.5065L63.6643 6.50655L85.6643 44.6117ZM48.7367 24.6513L60.6445 17.7763C61.2762 17.4116 62.0268 17.3128 62.7313 17.5015C63.4358 17.6903 64.0364 18.1512 64.4011 18.7828C64.7658 19.4145 64.8646 20.1651 64.6758 20.8696C64.4871 21.5741 64.0262 22.1747 63.3945 22.5394L51.4867 29.4144C50.8551 29.7791 50.1044 29.8779 49.3999 29.6891C48.6954 29.5004 48.0948 29.0395 47.7301 28.4078C47.3655 27.7762 47.2666 27.0256 47.4554 26.3211C47.6442 25.6166 48.1051 25.0159 48.7367 24.6513ZM69.9011 28.3091C70.2658 28.9407 70.3646 29.6914 70.1758 30.3959C69.9871 31.1004 69.5262 31.701 68.8945 32.0657L56.9867 38.9407C56.3551 39.3053 55.6044 39.4042 54.8999 39.2154C54.1955 39.0266 53.5948 38.5657 53.2301 37.9341C52.8655 37.3025 52.7666 36.5518 52.9554 35.8474C53.1442 35.1429 53.6051 34.5422 54.2367 34.1775L66.1445 27.3025C66.7762 26.9379 67.5268 26.839 68.2313 27.0278C68.9358 27.2166 69.5364 27.6775 69.9011 28.3091ZM75.4011 37.8354C75.7658 38.467 75.8646 39.2176 75.6758 39.9221C75.4871 40.6266 75.0262 41.2273 74.3945 41.592L62.4867 48.467C61.8551 48.8316 61.1044 48.9305 60.3999 48.7417C59.6955 48.5529 59.0948 48.092 58.7301 47.4604C58.3655 46.8288 58.2666 46.0781 58.4554 45.3736C58.6442 44.6691 59.1051 44.0685 59.7367 43.7038L71.6445 36.8288C72.2762 36.4641 73.0268 36.3653 73.7313 36.5541C74.4358 36.7429 75.0364 37.2038 75.4011 37.8354Z" fill="currentColor"/>
</svg>
