<svg width="1em" height="1em" viewBox="0 0 24 24" fill="none" xmlns="http://www.w3.org/2000/svg">
<path d="M16.3125 4.4766C15.1545 3.13919 13.8511 1.9349 12.4266 0.885971C12.3005 0.797632 12.1502 0.750244 11.9963 0.750244C11.8423 0.750244 11.692 0.797632 11.5659 0.885971C10.144 1.93533 8.84317 3.13961 7.6875 4.4766C5.11031 7.43628 3.75 10.5563 3.75 13.5C3.75 15.6881 4.61919 17.7865 6.16637 19.3337C7.71354 20.8808 9.81196 21.75 12 21.75C14.188 21.75 16.2865 20.8808 17.8336 19.3337C19.3808 17.7865 20.25 15.6881 20.25 13.5C20.25 10.5563 18.8897 7.43628 16.3125 4.4766ZM12 20.25C10.2104 20.248 8.49466 19.5363 7.22922 18.2708C5.96378 17.0054 5.25199 15.2896 5.25 13.5C5.25 8.13472 10.4503 3.65628 12 2.43753C13.5497 3.65628 18.75 8.13285 18.75 13.5C18.748 15.2896 18.0362 17.0054 16.7708 18.2708C15.5053 19.5363 13.7896 20.248 12 20.25ZM17.2397 14.3757C17.0452 15.4619 16.5226 16.4626 15.7422 17.2428C14.9618 18.0231 13.961 18.5455 12.8747 18.7397C12.8334 18.7463 12.7918 18.7498 12.75 18.75C12.5619 18.75 12.3806 18.6792 12.2422 18.5518C12.1038 18.4244 12.0183 18.2496 12.0028 18.0621C11.9872 17.8746 12.0426 17.6881 12.1581 17.5396C12.2736 17.3911 12.4407 17.2914 12.6262 17.2603C14.1797 16.9988 15.4978 15.6807 15.7612 14.1244C15.7946 13.9282 15.9045 13.7533 16.0667 13.6382C16.229 13.523 16.4304 13.477 16.6266 13.5103C16.8227 13.5437 16.9976 13.6535 17.1128 13.8158C17.228 13.9781 17.2739 14.1795 17.2406 14.3757H17.2397Z" fill="currentColor"/>
</svg>
