<svg width="157" height="42" viewBox="0 0 157 42" fill="none" xmlns="http://www.w3.org/2000/svg">
<path d="M2.95419 31V10.6364H9.83487C11.4324 10.6364 12.7383 10.9247 13.7525 11.5014C14.7733 12.0715 15.529 12.8438 16.0195 13.8182C16.5101 14.7926 16.7553 15.8797 16.7553 17.0795C16.7553 18.2794 16.5101 19.3698 16.0195 20.3509C15.5356 21.3319 14.7866 22.1141 13.7724 22.6974C12.7582 23.2741 11.4589 23.5625 9.87465 23.5625H4.94283V21.375H9.7951C10.8888 21.375 11.7672 21.1861 12.43 20.8082C13.0929 20.4304 13.5735 19.92 13.8718 19.277C14.1767 18.6274 14.3292 17.8949 14.3292 17.0795C14.3292 16.2642 14.1767 15.535 13.8718 14.892C13.5735 14.2491 13.0896 13.7453 12.4201 13.3807C11.7506 13.0095 10.8623 12.8239 9.75533 12.8239H5.4201V31H2.95419ZM20.4094 31V15.7273H22.756V31H20.4094ZM21.6026 13.1818C21.1452 13.1818 20.7508 13.026 20.4194 12.7145C20.0946 12.4029 19.9322 12.0284 19.9322 11.5909C19.9322 11.1534 20.0946 10.7789 20.4194 10.4673C20.7508 10.1558 21.1452 10 21.6026 10C22.06 10 22.4511 10.1558 22.7759 10.4673C23.1074 10.7789 23.2731 11.1534 23.2731 11.5909C23.2731 12.0284 23.1074 12.4029 22.7759 12.7145C22.4511 13.026 22.06 13.1818 21.6026 13.1818ZM28.804 15.7273L32.4631 21.9716L36.1222 15.7273H38.8267L33.8949 23.3636L38.8267 31H36.1222L32.4631 25.0739L28.804 31H26.0994L30.9517 23.3636L26.0994 15.7273H28.804ZM42.1751 31V15.7273H44.5217V31H42.1751ZM43.3683 13.1818C42.9109 13.1818 42.5165 13.026 42.185 12.7145C41.8602 12.4029 41.6978 12.0284 41.6978 11.5909C41.6978 11.1534 41.8602 10.7789 42.185 10.4673C42.5165 10.1558 42.9109 10 43.3683 10C43.8256 10 44.2167 10.1558 44.5415 10.4673C44.873 10.7789 45.0387 11.1534 45.0387 11.5909C45.0387 12.0284 44.873 12.4029 44.5415 12.7145C44.2167 13.026 43.8256 13.1818 43.3683 13.1818ZM60.6023 16.5526C60.6354 15.724 60.3935 15.0843 59.8764 14.6335C59.366 14.1828 58.5938 13.9574 57.5597 13.9574C56.857 13.9574 56.2472 14.0568 55.7301 14.2557C55.2131 14.4479 54.7988 14.7164 54.4872 15.0611C54.1823 15.3991 53.9934 15.7902 53.9205 16.2344C53.8475 16.599 53.8707 16.9171 53.9901 17.1889C54.116 17.4607 54.3116 17.696 54.5767 17.8949C54.8485 18.0871 55.17 18.2562 55.5412 18.402C55.9124 18.5412 56.3068 18.6605 56.7244 18.7599L58.4744 19.1974C59.3295 19.3963 60.0985 19.6615 60.7812 19.9929C61.4706 20.3243 62.0473 20.732 62.5114 21.2159C62.982 21.6998 63.3134 22.2699 63.5057 22.9261C63.6979 23.5824 63.7244 24.3348 63.5852 25.1832C63.3731 26.4295 62.8793 27.5099 62.1037 28.4247C61.3281 29.3329 60.3106 30.0388 59.0511 30.5426C57.7917 31.0398 56.3333 31.2884 54.6761 31.2884C53.0322 31.2884 51.6435 31.0365 50.5099 30.5327C49.3764 30.0289 48.5511 29.2831 48.0341 28.2955C47.5237 27.3011 47.3712 26.0715 47.5767 24.6065H51.7429C51.67 25.2893 51.7694 25.8594 52.0412 26.3168C52.3196 26.7675 52.7339 27.1089 53.2841 27.3409C53.8343 27.5663 54.4806 27.679 55.223 27.679C55.9588 27.679 56.6117 27.5729 57.1818 27.3608C57.7585 27.1487 58.2259 26.8537 58.5838 26.4759C58.9418 26.098 59.1605 25.6638 59.2401 25.1733C59.3196 24.7159 59.25 24.3314 59.0312 24.0199C58.8125 23.7083 58.4612 23.4432 57.9773 23.2244C57.5 22.9991 56.9067 22.8002 56.1974 22.6278L54.0696 22.071C52.4257 21.6534 51.1828 21.0005 50.3409 20.1122C49.4991 19.224 49.1974 18.0275 49.4361 16.5227C49.6482 15.2898 50.1619 14.2126 50.9773 13.2912C51.7992 12.3632 52.8333 11.6439 54.0795 11.1335C55.3324 10.6165 56.7012 10.358 58.1861 10.358C59.6974 10.358 60.9735 10.6198 62.0142 11.1435C63.0549 11.6605 63.8139 12.383 64.2912 13.3111C64.7685 14.2391 64.9143 15.3196 64.7287 16.5526H60.6023ZM76.1062 15.7273L75.5792 18.9091H66.3718L66.9087 15.7273H76.1062ZM69.5934 12.0682H73.8292L71.4627 26.3068C71.3964 26.6979 71.4064 27.0028 71.4925 27.2216C71.5787 27.4337 71.7212 27.5829 71.9201 27.669C72.1256 27.7552 72.3709 27.7983 72.6559 27.7983C72.8548 27.7983 73.0569 27.7817 73.2624 27.7486C73.4679 27.7088 73.6237 27.679 73.7298 27.6591L73.8888 30.8111C73.6502 30.884 73.3287 30.9635 72.9244 31.0497C72.5266 31.1359 72.056 31.1889 71.5124 31.2088C70.4783 31.2486 69.6033 31.1127 68.8874 30.8011C68.1715 30.483 67.6578 29.9957 67.3462 29.3395C67.0347 28.6832 66.9684 27.858 67.1474 26.8636L69.5934 12.0682ZM80.6353 31.2884C79.6675 31.2884 78.829 31.1193 78.1197 30.7812C77.417 30.4366 76.9 29.9261 76.5685 29.25C76.2371 28.5739 76.1542 27.7353 76.32 26.7344C76.4658 25.8859 76.7409 25.1766 77.1452 24.6065C77.5562 24.0298 78.0567 23.5658 78.6467 23.2145C79.2366 22.8632 79.8896 22.5947 80.6055 22.4091C81.328 22.2235 82.0737 22.0975 82.8427 22.0312C83.7309 21.9384 84.4535 21.849 85.0103 21.7628C85.5737 21.6766 85.9947 21.554 86.2731 21.3949C86.5515 21.2292 86.7205 20.9839 86.7802 20.6591V20.5994C86.8796 19.9763 86.7636 19.4924 86.4322 19.1477C86.1074 18.7964 85.587 18.6207 84.8711 18.6207C84.1154 18.6207 83.4724 18.7865 82.9421 19.1179C82.4184 19.4493 82.0439 19.8703 81.8185 20.3807L77.9606 20.0625C78.3053 19.1345 78.8256 18.3324 79.5217 17.6562C80.2243 16.9735 81.0695 16.4498 82.0572 16.0852C83.0449 15.714 84.1519 15.5284 85.3782 15.5284C86.2267 15.5284 87.0188 15.6278 87.7546 15.8267C88.497 16.0256 89.1367 16.3338 89.6737 16.7514C90.2172 17.169 90.6083 17.706 90.8469 18.3622C91.0922 19.0118 91.1419 19.7907 90.9961 20.6989L89.2759 31H85.2589L85.6168 28.8821H85.4975C85.1727 29.3594 84.775 29.7803 84.3043 30.1449C83.8337 30.5028 83.2934 30.7846 82.6836 30.9901C82.0737 31.1889 81.391 31.2884 80.6353 31.2884ZM82.3356 28.3651C82.9521 28.3651 83.5188 28.2424 84.0359 27.9972C84.5595 27.7453 84.9904 27.4072 85.3285 26.983C85.6732 26.5587 85.8919 26.0781 85.9847 25.5412L86.2433 23.9205C86.1107 24.0066 85.9184 24.0829 85.6665 24.1491C85.4213 24.2154 85.1528 24.2784 84.8612 24.3381C84.5761 24.3911 84.2878 24.4408 83.9961 24.4872C83.7044 24.527 83.4426 24.5668 83.2106 24.6065C82.7002 24.6795 82.2428 24.7955 81.8384 24.9545C81.4341 25.1136 81.1059 25.3291 80.854 25.6009C80.6022 25.866 80.4464 26.1974 80.3867 26.5952C80.2939 27.1719 80.4298 27.6127 80.7944 27.9176C81.1656 28.2159 81.6793 28.3651 82.3356 28.3651ZM103.331 15.7273L102.804 18.9091H93.3775L93.9045 15.7273H103.331ZM93.5067 31L96.2411 14.6236C96.4201 13.5166 96.7847 12.5985 97.3349 11.8693C97.8917 11.1402 98.5778 10.5933 99.3931 10.2287C100.215 9.86411 101.103 9.68182 102.058 9.68182C102.708 9.68182 103.294 9.73153 103.818 9.83097C104.348 9.9304 104.733 10.0199 104.971 10.0994L103.708 13.2812C103.549 13.2282 103.354 13.1785 103.122 13.1321C102.89 13.0857 102.645 13.0625 102.386 13.0625C101.77 13.0625 101.315 13.2083 101.024 13.5C100.739 13.785 100.547 14.1861 100.447 14.7031L97.7326 31H93.5067ZM114.131 15.7273L113.604 18.9091H104.178L104.705 15.7273H114.131ZM104.308 31L107.042 14.6236C107.221 13.5166 107.585 12.5985 108.136 11.8693C108.692 11.1402 109.379 10.5933 110.194 10.2287C111.016 9.86411 111.904 9.68182 112.859 9.68182C113.508 9.68182 114.095 9.73153 114.619 9.83097C115.149 9.9304 115.533 10.0199 115.772 10.0994L114.509 13.2812C114.35 13.2282 114.155 13.1785 113.923 13.1321C113.691 13.0857 113.445 13.0625 113.187 13.0625C112.57 13.0625 112.116 13.2083 111.825 13.5C111.54 13.785 111.347 14.1861 111.248 14.7031L108.533 31H104.308ZM114.164 31L116.709 15.7273H120.945L118.4 31H114.164ZM119.265 13.7386C118.635 13.7386 118.114 13.5298 117.703 13.1122C117.299 12.688 117.133 12.1842 117.206 11.6009C117.279 11.0043 117.564 10.5005 118.061 10.0895C118.559 9.67187 119.122 9.46307 119.752 9.46307C120.382 9.46307 120.895 9.67187 121.293 10.0895C121.691 10.5005 121.856 11.0043 121.79 11.6009C121.724 12.1842 121.442 12.688 120.945 13.1122C120.454 13.5298 119.894 13.7386 119.265 13.7386ZM127.52 22.1705L126.048 31H121.822L124.368 15.7273H128.395L127.957 18.4219H128.126C128.61 17.527 129.293 16.821 130.175 16.304C131.063 15.7869 132.074 15.5284 133.207 15.5284C134.268 15.5284 135.153 15.7604 135.862 16.2244C136.578 16.6884 137.082 17.348 137.374 18.2031C137.672 19.0582 137.722 20.0824 137.523 21.2756L135.892 31H131.656L133.158 22.0312C133.31 21.0966 133.191 20.3674 132.8 19.8438C132.415 19.3134 131.795 19.0483 130.94 19.0483C130.37 19.0483 129.847 19.1709 129.369 19.4162C128.892 19.6615 128.491 20.0194 128.166 20.4901C127.848 20.9541 127.633 21.5142 127.52 22.1705ZM145.137 37.0455C143.758 37.0455 142.608 36.8565 141.686 36.4787C140.772 36.1075 140.076 35.6004 139.598 34.9574C139.128 34.3144 138.869 33.5919 138.823 32.7898L142.84 32.2628C142.913 32.5743 143.052 32.8627 143.257 33.1278C143.47 33.393 143.771 33.6051 144.162 33.7642C144.56 33.9233 145.074 34.0028 145.703 34.0028C146.625 34.0028 147.427 33.7775 148.11 33.3267C148.792 32.8826 149.213 32.1368 149.373 31.0895L149.83 28.2955H149.651C149.399 28.7197 149.054 29.1207 148.617 29.4986C148.186 29.8764 147.659 30.1847 147.036 30.4233C146.419 30.6619 145.707 30.7812 144.898 30.7812C143.745 30.7812 142.744 30.5161 141.895 29.9858C141.053 29.4489 140.444 28.6302 140.066 27.5298C139.694 26.4228 139.648 25.0241 139.926 23.3338C140.218 21.6037 140.742 20.1586 141.498 18.9986C142.253 17.8385 143.148 16.9702 144.182 16.3935C145.216 15.8168 146.293 15.5284 147.414 15.5284C148.269 15.5284 148.958 15.6742 149.482 15.9659C150.012 16.2509 150.42 16.6089 150.705 17.0398C150.99 17.464 151.192 17.8816 151.311 18.2926H151.48L151.898 15.7273H156.104L153.539 31.1491C153.333 32.455 152.839 33.5421 152.057 34.4105C151.282 35.2855 150.297 35.9418 149.104 36.3793C147.911 36.8234 146.588 37.0455 145.137 37.0455ZM146.728 27.5994C147.404 27.5994 148.01 27.4304 148.547 27.0923C149.091 26.7476 149.545 26.2571 149.909 25.6207C150.274 24.9777 150.529 24.2088 150.675 23.3139C150.821 22.419 150.818 21.6435 150.665 20.9872C150.519 20.3243 150.234 19.8106 149.81 19.446C149.392 19.0814 148.842 18.8991 148.159 18.8991C147.457 18.8991 146.84 19.0881 146.31 19.4659C145.78 19.8371 145.339 20.3542 144.988 21.017C144.643 21.6799 144.401 22.4455 144.262 23.3139C144.116 24.1955 144.109 24.9579 144.242 25.6009C144.381 26.2372 144.656 26.7311 145.067 27.0824C145.478 27.4271 146.032 27.5994 146.728 27.5994Z" fill="#534FDE"/>
</svg>
